<svg width="16" height="16" viewBox="0 0 16 16" fill="none" xmlns="http://www.w3.org/2000/svg">
  <g clip-path="url(#clip0_53_84)">
    <path d="M11.9999 5.33335H12.6666C13.3738 5.33335 14.0521 5.61431 14.5522 6.1144C15.0523 6.6145 15.3333 7.29278 15.3333 8.00002C15.3333 8.70726 15.0523 9.38554 14.5522 9.88564C14.0521 10.3857 13.3738 10.6667 12.6666 10.6667H11.9999M11.9999 5.33335H1.33325V11.3334C1.33325 12.0406 1.6142 12.7189 2.1143 13.219C2.6144 13.7191 3.29267 14 3.99992 14H9.33325C10.0405 14 10.7188 13.7191 11.2189 13.219C11.719 12.7189 11.9999 12.0406 11.9999 11.3334V5.33335ZM3.99992 0.666687V2.66669M6.66658 0.666687V2.66669M9.33325 0.666687V2.66669" stroke="#1E1E1E" stroke-width="1.6" stroke-linecap="round" stroke-linejoin="round"/>
  </g>
  <defs>
    <clipPath id="clip0_53_84">
      <rect width="16" height="16" fill="white"/>
    </clipPath>
  </defs>
</svg>
