<svg width="14" height="14" viewBox="0 0 14 14" fill="none" xmlns="http://www.w3.org/2000/svg">
<path d="M6.62061 13.2349C5.71501 13.2349 4.8623 13.0614 4.0625 12.7144C3.2627 12.3716 2.55811 11.8955 1.94873 11.2861C1.33936 10.6768 0.861165 9.97428 0.51416 9.17871C0.171387 8.37891 0 7.52409 0 6.61426C0 5.70866 0.171387 4.85807 0.51416 4.0625C0.861165 3.2627 1.33724 2.55811 1.94238 1.94873C2.55176 1.33936 3.25635 0.863281 4.05615 0.520508C4.85596 0.173503 5.70866 0 6.61426 0C7.51986 0 8.37256 0.173503 9.17236 0.520508C9.9764 0.863281 10.681 1.33936 11.2861 1.94873C11.8955 2.55811 12.3737 3.2627 12.7207 4.0625C13.0677 4.85807 13.2412 5.70866 13.2412 6.61426C13.2412 7.52409 13.0677 8.37891 12.7207 9.17871C12.3737 9.97428 11.8955 10.6768 11.2861 11.2861C10.681 11.8955 9.97852 12.3716 9.17871 12.7144C8.37891 13.0614 7.5262 13.2349 6.62061 13.2349ZM6.62061 11.7812C7.33577 11.7812 8.00651 11.6479 8.63281 11.3813C9.25911 11.1147 9.80713 10.7466 10.2769 10.2769C10.7508 9.8029 11.1211 9.25488 11.3877 8.63281C11.6543 8.00651 11.7876 7.33366 11.7876 6.61426C11.7876 5.89909 11.6522 5.23047 11.3813 4.6084C11.1147 3.9821 10.7445 3.43197 10.2705 2.95801C9.80078 2.48405 9.25277 2.11377 8.62646 1.84717C8.00439 1.58057 7.33366 1.44727 6.61426 1.44727C5.89909 1.44727 5.22835 1.58057 4.60205 1.84717C3.97998 2.11377 3.43197 2.48405 2.95801 2.95801C2.48828 3.43197 2.12012 3.9821 1.85352 4.6084C1.59115 5.23047 1.45996 5.89909 1.45996 6.61426C1.45996 7.33366 1.59115 8.00651 1.85352 8.63281C2.12012 9.25488 2.4904 9.8029 2.96436 10.2769C3.43831 10.7466 3.98633 11.1147 4.6084 11.3813C5.2347 11.6479 5.90544 11.7812 6.62061 11.7812ZM10.772 10.8101C10.3573 11.1655 9.90446 11.4639 9.41357 11.7051C8.92692 11.9505 8.44027 12.1346 7.95361 12.2573C7.46696 12.3843 7.02262 12.4478 6.62061 12.4478C6.22705 12.4478 5.78483 12.3843 5.29395 12.2573C4.80729 12.1346 4.31852 11.9505 3.82764 11.7051C3.33675 11.4639 2.88607 11.1655 2.47559 10.8101L2.50098 10.6704C2.65755 10.3615 2.92627 10.0674 3.30713 9.78809C3.68799 9.50456 4.15983 9.27393 4.72266 9.09619C5.28548 8.91846 5.91813 8.82959 6.62061 8.82959C7.33154 8.82959 7.96842 8.91846 8.53125 9.09619C9.09408 9.27393 9.5638 9.50456 9.94043 9.78809C10.3213 10.0674 10.59 10.3636 10.7466 10.6768L10.772 10.8101ZM6.62061 7.80762C6.21012 7.80339 5.83984 7.69548 5.50977 7.48389C5.17969 7.2723 4.91732 6.98665 4.72266 6.62695C4.53223 6.26302 4.4349 5.85465 4.43066 5.40186C4.42643 4.97445 4.52165 4.58301 4.71631 4.22754C4.9152 3.87207 5.17969 3.58643 5.50977 3.37061C5.84408 3.15479 6.21436 3.04688 6.62061 3.04688C7.03109 3.04688 7.40137 3.15479 7.73145 3.37061C8.06152 3.58643 8.32389 3.87207 8.51855 4.22754C8.71745 4.58301 8.81689 4.97445 8.81689 5.40186C8.81689 5.85465 8.71956 6.26302 8.5249 6.62695C8.33024 6.99089 8.06787 7.28076 7.73779 7.49658C7.40771 7.70817 7.03532 7.81185 6.62061 7.80762Z" fill="black"/>
<path d="M6.62061 13.2349C5.71501 13.2349 4.8623 13.0614 4.0625 12.7144C3.2627 12.3716 2.55811 11.8955 1.94873 11.2861C1.33936 10.6768 0.861165 9.97428 0.51416 9.17871C0.171387 8.37891 0 7.52409 0 6.61426C0 5.70866 0.171387 4.85807 0.51416 4.0625C0.861165 3.2627 1.33724 2.55811 1.94238 1.94873C2.55176 1.33936 3.25635 0.863281 4.05615 0.520508C4.85596 0.173503 5.70866 0 6.61426 0C7.51986 0 8.37256 0.173503 9.17236 0.520508C9.9764 0.863281 10.681 1.33936 11.2861 1.94873C11.8955 2.55811 12.3737 3.2627 12.7207 4.0625C13.0677 4.85807 13.2412 5.70866 13.2412 6.61426C13.2412 7.52409 13.0677 8.37891 12.7207 9.17871C12.3737 9.97428 11.8955 10.6768 11.2861 11.2861C10.681 11.8955 9.97852 12.3716 9.17871 12.7144C8.37891 13.0614 7.5262 13.2349 6.62061 13.2349ZM6.62061 11.7812C7.33577 11.7812 8.00651 11.6479 8.63281 11.3813C9.25911 11.1147 9.80713 10.7466 10.2769 10.2769C10.7508 9.8029 11.1211 9.25488 11.3877 8.63281C11.6543 8.00651 11.7876 7.33366 11.7876 6.61426C11.7876 5.89909 11.6522 5.23047 11.3813 4.6084C11.1147 3.9821 10.7445 3.43197 10.2705 2.95801C9.80078 2.48405 9.25277 2.11377 8.62646 1.84717C8.00439 1.58057 7.33366 1.44727 6.61426 1.44727C5.89909 1.44727 5.22835 1.58057 4.60205 1.84717C3.97998 2.11377 3.43197 2.48405 2.95801 2.95801C2.48828 3.43197 2.12012 3.9821 1.85352 4.6084C1.59115 5.23047 1.45996 5.89909 1.45996 6.61426C1.45996 7.33366 1.59115 8.00651 1.85352 8.63281C2.12012 9.25488 2.4904 9.8029 2.96436 10.2769C3.43831 10.7466 3.98633 11.1147 4.6084 11.3813C5.2347 11.6479 5.90544 11.7812 6.62061 11.7812ZM10.772 10.8101C10.3573 11.1655 9.90446 11.4639 9.41357 11.7051C8.92692 11.9505 8.44027 12.1346 7.95361 12.2573C7.46696 12.3843 7.02262 12.4478 6.62061 12.4478C6.22705 12.4478 5.78483 12.3843 5.29395 12.2573C4.80729 12.1346 4.31852 11.9505 3.82764 11.7051C3.33675 11.4639 2.88607 11.1655 2.47559 10.8101L2.50098 10.6704C2.65755 10.3615 2.92627 10.0674 3.30713 9.78809C3.68799 9.50456 4.15983 9.27393 4.72266 9.09619C5.28548 8.91846 5.91813 8.82959 6.62061 8.82959C7.33154 8.82959 7.96842 8.91846 8.53125 9.09619C9.09408 9.27393 9.5638 9.50456 9.94043 9.78809C10.3213 10.0674 10.59 10.3636 10.7466 10.6768L10.772 10.8101ZM6.62061 7.80762C6.21012 7.80339 5.83984 7.69548 5.50977 7.48389C5.17969 7.2723 4.91732 6.98665 4.72266 6.62695C4.53223 6.26302 4.4349 5.85465 4.43066 5.40186C4.42643 4.97445 4.52165 4.58301 4.71631 4.22754C4.9152 3.87207 5.17969 3.58643 5.50977 3.37061C5.84408 3.15479 6.21436 3.04688 6.62061 3.04688C7.03109 3.04688 7.40137 3.15479 7.73145 3.37061C8.06152 3.58643 8.32389 3.87207 8.51855 4.22754C8.71745 4.58301 8.81689 4.97445 8.81689 5.40186C8.81689 5.85465 8.71956 6.26302 8.5249 6.62695C8.33024 6.99089 8.06787 7.28076 7.73779 7.49658C7.40771 7.70817 7.03532 7.81185 6.62061 7.80762Z" fill="black" fill-opacity="0.2"/>
</svg>
