<svg width="15" height="11" viewBox="0 0 15 11" fill="none" xmlns="http://www.w3.org/2000/svg">
<path d="M7.4653 10.8164C7.38066 10.8164 7.29603 10.7931 7.21139 10.7466C7.13099 10.7 7.02731 10.6133 6.90036 10.4863L5.33248 8.98193C5.27324 8.92269 5.23515 8.85921 5.21823 8.7915C5.20553 8.71956 5.21823 8.65186 5.25631 8.58838C5.48906 8.27946 5.8001 8.02132 6.18942 7.81396C6.58297 7.60238 7.00827 7.49658 7.4653 7.49658C7.90963 7.49658 8.32435 7.59603 8.70944 7.79492C9.09453 7.99382 9.40345 8.23926 9.6362 8.53125C9.69544 8.60319 9.71871 8.68148 9.70602 8.76611C9.69756 8.85075 9.66159 8.92269 9.59811 8.98193L8.03024 10.4863C7.90329 10.6133 7.79749 10.7 7.71286 10.7466C7.63245 10.7931 7.54993 10.8164 7.4653 10.8164ZM3.66305 7.26172L2.65377 6.27783C2.5903 6.21436 2.55644 6.14453 2.55221 6.06836C2.54798 5.98796 2.57337 5.9139 2.62838 5.84619C2.96692 5.44417 3.38587 5.0887 3.88522 4.77979C4.38457 4.46663 4.93893 4.22119 5.54831 4.04346C6.16191 3.86572 6.80091 3.77686 7.4653 3.77686C8.12969 3.77686 8.76657 3.86572 9.37594 4.04346C9.98532 4.22119 10.5397 4.46663 11.039 4.77979C11.5426 5.0887 11.9616 5.44417 12.2959 5.84619C12.3551 5.9139 12.3805 5.98796 12.372 6.06836C12.3678 6.14876 12.3339 6.21859 12.2705 6.27783L11.2612 7.26172C11.1808 7.33789 11.094 7.37598 11.0009 7.37598C10.9121 7.37598 10.8317 7.33789 10.7597 7.26172C10.3577 6.83431 9.86471 6.48519 9.28073 6.21436C8.70097 5.94352 8.09583 5.81022 7.4653 5.81445C6.84323 5.81022 6.2402 5.94141 5.65622 6.20801C5.07646 6.47038 4.58981 6.81315 4.19625 7.23633C4.12008 7.32096 4.03122 7.36751 3.92965 7.37598C3.83232 7.38021 3.74345 7.34212 3.66305 7.26172ZM0.997035 4.62744L0.102016 3.71338C0.0385393 3.64567 0.00468518 3.57161 0.000453404 3.49121C-0.00377837 3.40658 0.0216123 3.33252 0.0766253 3.26904C0.58867 2.63005 1.23401 2.0651 2.01266 1.57422C2.79131 1.0791 3.64612 0.69401 4.57711 0.418945C5.51234 0.139648 6.47506 0 7.4653 0C8.4513 0 9.41191 0.139648 10.3471 0.418945C11.2824 0.698242 12.1372 1.08333 12.9116 1.57422C13.6902 2.0651 14.3356 2.63005 14.8476 3.26904C14.9069 3.33252 14.9344 3.40658 14.9301 3.49121C14.9259 3.57161 14.8921 3.64567 14.8286 3.71338L13.9272 4.61475C13.8595 4.69092 13.7749 4.73112 13.6733 4.73535C13.576 4.73535 13.4913 4.69938 13.4194 4.62744C12.6408 3.78955 11.7436 3.15479 10.728 2.72314C9.7166 2.28727 8.62903 2.06934 7.4653 2.06934C6.31002 2.06934 5.22669 2.28727 4.2153 2.72314C3.2039 3.15479 2.30465 3.78743 1.51754 4.62109C1.4456 4.69727 1.35885 4.73747 1.25729 4.7417C1.15573 4.7417 1.06898 4.70361 0.997035 4.62744Z" fill="black"/>
<path d="M7.4653 10.8164C7.38066 10.8164 7.29603 10.7931 7.21139 10.7466C7.13099 10.7 7.02731 10.6133 6.90036 10.4863L5.33248 8.98193C5.27324 8.92269 5.23515 8.85921 5.21823 8.7915C5.20553 8.71956 5.21823 8.65186 5.25631 8.58838C5.48906 8.27946 5.8001 8.02132 6.18942 7.81396C6.58297 7.60238 7.00827 7.49658 7.4653 7.49658C7.90963 7.49658 8.32435 7.59603 8.70944 7.79492C9.09453 7.99382 9.40345 8.23926 9.6362 8.53125C9.69544 8.60319 9.71871 8.68148 9.70602 8.76611C9.69756 8.85075 9.66159 8.92269 9.59811 8.98193L8.03024 10.4863C7.90329 10.6133 7.79749 10.7 7.71286 10.7466C7.63245 10.7931 7.54993 10.8164 7.4653 10.8164ZM3.66305 7.26172L2.65377 6.27783C2.5903 6.21436 2.55644 6.14453 2.55221 6.06836C2.54798 5.98796 2.57337 5.9139 2.62838 5.84619C2.96692 5.44417 3.38587 5.0887 3.88522 4.77979C4.38457 4.46663 4.93893 4.22119 5.54831 4.04346C6.16191 3.86572 6.80091 3.77686 7.4653 3.77686C8.12969 3.77686 8.76657 3.86572 9.37594 4.04346C9.98532 4.22119 10.5397 4.46663 11.039 4.77979C11.5426 5.0887 11.9616 5.44417 12.2959 5.84619C12.3551 5.9139 12.3805 5.98796 12.372 6.06836C12.3678 6.14876 12.3339 6.21859 12.2705 6.27783L11.2612 7.26172C11.1808 7.33789 11.094 7.37598 11.0009 7.37598C10.9121 7.37598 10.8317 7.33789 10.7597 7.26172C10.3577 6.83431 9.86471 6.48519 9.28073 6.21436C8.70097 5.94352 8.09583 5.81022 7.4653 5.81445C6.84323 5.81022 6.2402 5.94141 5.65622 6.20801C5.07646 6.47038 4.58981 6.81315 4.19625 7.23633C4.12008 7.32096 4.03122 7.36751 3.92965 7.37598C3.83232 7.38021 3.74345 7.34212 3.66305 7.26172ZM0.997035 4.62744L0.102016 3.71338C0.0385393 3.64567 0.00468518 3.57161 0.000453404 3.49121C-0.00377837 3.40658 0.0216123 3.33252 0.0766253 3.26904C0.58867 2.63005 1.23401 2.0651 2.01266 1.57422C2.79131 1.0791 3.64612 0.69401 4.57711 0.418945C5.51234 0.139648 6.47506 0 7.4653 0C8.4513 0 9.41191 0.139648 10.3471 0.418945C11.2824 0.698242 12.1372 1.08333 12.9116 1.57422C13.6902 2.0651 14.3356 2.63005 14.8476 3.26904C14.9069 3.33252 14.9344 3.40658 14.9301 3.49121C14.9259 3.57161 14.8921 3.64567 14.8286 3.71338L13.9272 4.61475C13.8595 4.69092 13.7749 4.73112 13.6733 4.73535C13.576 4.73535 13.4913 4.69938 13.4194 4.62744C12.6408 3.78955 11.7436 3.15479 10.728 2.72314C9.7166 2.28727 8.62903 2.06934 7.4653 2.06934C6.31002 2.06934 5.22669 2.28727 4.2153 2.72314C3.2039 3.15479 2.30465 3.78743 1.51754 4.62109C1.4456 4.69727 1.35885 4.73747 1.25729 4.7417C1.15573 4.7417 1.06898 4.70361 0.997035 4.62744Z" fill="black" fill-opacity="0.2"/>
</svg>
