<svg width="16" height="16" viewBox="0 0 16 16" fill="none" xmlns="http://www.w3.org/2000/svg">
<g opacity="0.5">
<path d="M7.99996 8.66668C8.36815 8.66668 8.66663 8.3682 8.66663 8.00001C8.66663 7.63182 8.36815 7.33334 7.99996 7.33334C7.63177 7.33334 7.33329 7.63182 7.33329 8.00001C7.33329 8.3682 7.63177 8.66668 7.99996 8.66668Z" stroke="#1E1E1E" stroke-width="1.6" stroke-linecap="round" stroke-linejoin="round"/>
<path d="M12.6666 8.66668C13.0348 8.66668 13.3333 8.3682 13.3333 8.00001C13.3333 7.63182 13.0348 7.33334 12.6666 7.33334C12.2984 7.33334 12 7.63182 12 8.00001C12 8.3682 12.2984 8.66668 12.6666 8.66668Z" stroke="#1E1E1E" stroke-width="1.6" stroke-linecap="round" stroke-linejoin="round"/>
<path d="M3.33329 8.66668C3.70148 8.66668 3.99996 8.3682 3.99996 8.00001C3.99996 7.63182 3.70148 7.33334 3.33329 7.33334C2.9651 7.33334 2.66663 7.63182 2.66663 8.00001C2.66663 8.3682 2.9651 8.66668 3.33329 8.66668Z" stroke="#1E1E1E" stroke-width="1.6" stroke-linecap="round" stroke-linejoin="round"/>
</g>
</svg>
