<svg preserveAspectRatio="none" width="100%" height="100%" overflow="visible" style="display: block;" viewBox="0 0 17.5705 17.1505" fill="none" xmlns="http://www.w3.org/2000/svg">
<path id="Union" d="M3.53127 2.44546C4.36784 0.265428 6.95071 -0.655312 8.97756 0.504051C9.73075 0.935028 10.6097 1.09505 11.4668 0.959129C13.7732 0.593705 15.8621 2.37197 15.8711 4.70718L15.8867 5.03139C15.9539 5.78241 16.2431 6.49929 16.7207 7.08901C18.1906 8.90361 17.6965 11.6029 15.6787 12.7785L15.4053 12.9523C14.7881 13.386 14.3111 13.9955 14.0391 14.7042L13.9561 14.9054C13.0716 16.8747 10.7149 17.7149 8.7842 16.7492L8.59279 16.6457C7.93368 16.2685 7.17835 16.0981 6.4258 16.1525L6.10353 16.1906C3.86919 16.5446 1.83892 14.8873 1.70607 12.6603L1.69924 12.4425C1.69615 11.6836 1.46602 10.9456 1.04299 10.3214L0.849627 10.0607C-0.620118 8.24612 -0.126014 5.54778 1.89162 4.37221C2.54785 3.98994 3.07322 3.42137 3.40236 2.74233L3.53127 2.44546ZM8.37599 1.55678C6.99429 0.7664 5.23339 1.39388 4.6631 2.88003C4.25335 3.9478 3.49114 4.8443 2.50295 5.42007C1.1273 6.22142 0.789869 8.06095 1.79201 9.298C2.51169 10.1866 2.90652 11.2942 2.91115 12.4376C2.91732 14.0296 4.34181 15.2415 5.91408 14.9923C7.04373 14.8133 8.20158 15.025 9.19435 15.5929C10.5761 16.3834 12.337 15.756 12.9072 14.2697C13.3169 13.202 14.0794 12.3064 15.0674 11.7306C16.443 10.9293 16.7805 9.08875 15.7783 7.85171C15.0587 6.96308 14.6638 5.85554 14.6592 4.71206C14.653 3.12013 13.2285 1.90819 11.6563 2.15737C10.5266 2.33645 9.36877 2.12473 8.37599 1.55678ZM12.4238 10.3947C12.7586 10.3947 13.0303 10.6664 13.0303 11.0011C13.03 11.3356 12.7584 11.6066 12.4238 11.6066H8.78713C8.45269 11.6064 8.18097 11.3355 8.18068 11.0011C8.18068 10.6665 8.45252 10.3949 8.78713 10.3947H12.4238ZM4.02443 6.44643C4.19662 6.15946 4.56846 6.06641 4.85549 6.23843L7.88674 8.05678C8.05671 8.15884 8.16626 8.33751 8.1797 8.5353C8.19288 8.73318 8.10801 8.92605 7.95314 9.04995L4.92287 11.4748C4.66151 11.6834 4.27934 11.6412 4.07033 11.38C3.86134 11.1188 3.90411 10.7367 4.16506 10.5275L6.51467 8.64663L4.23244 7.27749C3.94569 7.10535 3.85276 6.73336 4.02443 6.44643Z" fill="#030303"/>
</svg>
